<?xml version="1.0" encoding="UTF-8" standalone="no"?>
<svg width="27px" height="27px" viewBox="0 0 27 27" version="1.1" xmlns="http://www.w3.org/2000/svg" xmlns:xlink="http://www.w3.org/1999/xlink" xmlns:sketch="http://www.bohemiancoding.com/sketch/ns">
    <!-- Generator: Sketch 3.2.2 (9983) - http://www.bohemiancoding.com/sketch -->
    <title>dribbble</title>
    <desc>Created with Sketch.</desc>
    <defs></defs>
    <g id="Welcome" stroke="none" stroke-width="1" fill-rule="evenodd" sketch:type="MSPage">
        <g id="try-it" sketch:type="MSArtboardGroup" transform="translate(-1003.000000, -2606.000000)">
            <g id="hello@officeofmesker-+-instagram----twitter-+-Line" sketch:type="MSLayerGroup" transform="translate(410.000000, 2513.000000)">
                <path d="M606.031033,102.177124 C602.637136,103.175827 598.502737,103.717488 593.627713,103.802124 C594.033965,101.770864 594.882426,99.944873 596.173123,98.3240967 C597.463819,96.7033203 599.04437,95.461308 600.914822,94.5980225 C602.86991,96.967826 604.575297,99.4941679 606.031033,102.177124 L606.031033,102.177124 Z M596.788845,115.21521 C595.705507,114.030308 594.863393,112.682503 594.262478,111.171753 C593.661564,109.661003 593.361111,108.067757 593.361111,106.391968 L593.361111,105.795288 C598.794732,105.693725 603.31845,105.080124 606.9324,103.954468 C607.330189,104.741581 607.711044,105.575232 608.074978,106.455444 C607.634872,106.573935 607.304797,106.671264 607.084744,106.747437 C602.962979,108.211637 599.531047,111.034199 596.788845,115.21521 L596.788845,115.21521 Z M611.477322,118.338257 C609.869241,119.040734 608.163854,119.391968 606.361111,119.391968 C604.87152,119.391968 603.434848,119.148643 602.051053,118.661987 C600.667257,118.175331 599.416781,117.487675 598.299588,116.598999 C601.058716,112.240253 604.558356,109.468471 608.798611,108.283569 C609.966586,111.381241 610.85948,114.73277 611.477322,118.338257 L611.477322,118.338257 Z M619.208767,108.347046 C618.937933,110.17518 618.303173,111.859408 617.30447,113.39978 C616.305768,114.940153 615.044712,116.213903 613.521267,117.221069 C612.903426,113.827172 612.061312,110.699925 610.9949,107.839233 C613.601684,107.458372 616.339612,107.627641 619.208767,108.347046 L619.208767,108.347046 Z M608.163845,101.453491 C606.708109,98.7282172 605.023881,96.1807166 603.111111,93.8109131 C604.211377,93.5316148 605.2947,93.3919678 606.361111,93.3919678 C608.003046,93.3919678 609.56667,93.683957 611.052029,94.2679443 C612.537388,94.8519316 613.864035,95.672887 615.03201,96.730835 C613.280048,98.7451679 610.990683,100.319371 608.163845,101.453491 L608.163845,101.453491 Z M619.361111,106.328491 C616.111095,105.600623 613.081177,105.469439 610.271267,105.934937 C610.034287,105.325558 609.632273,104.415737 609.065213,103.205444 C612.044394,102.012079 614.494565,100.327851 616.415799,98.15271 C617.346793,99.2783666 618.068303,100.541538 618.580349,101.942261 C619.092396,103.342984 619.352648,104.805046 619.361111,106.328491 L619.361111,106.328491 Z" id="dribbble" sketch:type="MSShapeGroup"></path>
            </g>
        </g>
    </g>
</svg>