<?xml version="1.0" encoding="UTF-8" standalone="no"?>
<svg width="20px" height="18px" viewBox="0 0 20 18" version="1.1" xmlns="http://www.w3.org/2000/svg" xmlns:xlink="http://www.w3.org/1999/xlink" xmlns:sketch="http://www.bohemiancoding.com/sketch/ns">
    <!-- Generator: Sketch 3.2.2 (9983) - http://www.bohemiancoding.com/sketch -->
    <title>rdio</title>
    <desc>Created with Sketch.</desc>
    <defs></defs>
    <g id="Page-1" stroke="none" stroke-width="1" fill-rule="evenodd" sketch:type="MSPage">
        <g id="Desktop-HD" sketch:type="MSArtboardGroup" transform="translate(-1022.000000, -4166.000000)">
            <path d="M1042,4171.06445 C1041.84375,4172.00847 1041.27409,4172.79622 1040.29102,4173.42773 C1039.91992,4173.66862 1039.49349,4173.87695 1039.01172,4174.05273 C1039.05729,4174.33268 1039.08008,4174.64844 1039.08008,4175 C1039.08008,4176.13282 1038.85547,4177.21354 1038.40625,4178.24219 C1037.95703,4179.27084 1037.35157,4180.15625 1036.58984,4180.89844 C1035.82812,4181.64063 1034.91993,4182.23144 1033.86523,4182.6709 C1032.81054,4183.11035 1031.70378,4183.33008 1030.54492,4183.33008 C1029.38606,4183.33008 1028.2793,4183.11035 1027.22461,4182.6709 C1026.16992,4182.23144 1025.26009,4181.64063 1024.49512,4180.89844 C1023.73014,4180.15625 1023.12305,4179.27084 1022.67383,4178.24219 C1022.22461,4177.21354 1022,4176.13282 1022,4175 C1022,4173.86718 1022.22461,4172.78646 1022.67383,4171.75781 C1023.12305,4170.72916 1023.73014,4169.84375 1024.49512,4169.10156 C1025.26009,4168.35937 1026.16992,4167.76856 1027.22461,4167.3291 C1028.2793,4166.88965 1029.38606,4166.66992 1030.54492,4166.66992 C1031.38477,4166.66992 1032.21809,4166.78385 1033.04492,4167.01172 L1033.04492,4171.94336 C1032.49804,4171.61784 1031.87305,4171.45508 1031.16992,4171.45508 C1030.4733,4171.45508 1029.82552,4171.59342 1029.22656,4171.87012 C1028.6276,4172.14681 1028.14258,4172.49674 1027.77148,4172.91992 C1027.40039,4173.3431 1027.10905,4173.79232 1026.89746,4174.26758 C1026.68587,4174.74284 1026.58008,4175.19531 1026.58008,4175.625 C1026.58008,4176.22396 1026.74446,4176.7513 1027.07324,4177.20703 C1027.40202,4177.66276 1027.81543,4177.99967 1028.31348,4178.21777 C1028.81153,4178.43587 1029.347,4178.54492 1029.91992,4178.54492 C1030.74675,4178.54492 1031.52636,4178.35612 1032.25879,4177.97852 C1032.99121,4177.60091 1033.58203,4177.07357 1034.03125,4176.39648 C1034.48047,4175.7194 1034.70508,4174.97722 1034.70508,4174.16992 L1034.70508,4167.70508 C1034.86133,4167.7832 1035.43424,4168.10872 1036.42383,4168.68164 C1036.89909,4168.97461 1037.28483,4169.20247 1037.58105,4169.36523 C1037.87728,4169.528 1038.24674,4169.70703 1038.68945,4169.90234 C1039.13216,4170.09766 1039.57812,4170.23926 1040.02734,4170.32715 C1040.47656,4170.41504 1040.94857,4170.45898 1041.44336,4170.45898 C1041.58659,4170.45898 1041.72656,4170.52083 1041.86328,4170.64453 C1041.95443,4170.76823 1042,4170.9082 1042,4171.06445 L1042,4171.06445 Z" id="rdio" sketch:type="MSShapeGroup"></path>
        </g>
    </g>
</svg>