<?xml version="1.0" encoding="UTF-8" standalone="no"?>
<svg viewBox="0 0 27 27" version="1.1" xmlns="http://www.w3.org/2000/svg" xmlns:xlink="http://www.w3.org/1999/xlink" xmlns:sketch="http://www.bohemiancoding.com/sketch/ns">
    <!-- Generator: Sketch 3.2.2 (9983) - http://www.bohemiancoding.com/sketch -->
    <title>instagram</title>
    <desc>Created with Sketch.</desc>
    <defs></defs>
    <g id="Welcome" stroke="none" stroke-width="1" fill-rule="evenodd" sketch:type="MSPage">
        <g id="try-it" sketch:type="MSArtboardGroup" transform="translate(-1003.000000, -2517.000000)">
            <g id="hello@officeofmesker-+-instagram----twitter-+-Line" sketch:type="MSLayerGroup" transform="translate(410.000000, 2513.000000)">
                <path d="M615.565213,4.89196777 C616.614697,4.89196777 617.509708,5.26224402 618.250271,6.00280762 C618.990835,6.74337122 619.361111,7.6383818 619.361111,8.68786621 L619.361111,27.0960693 C619.361111,28.1455538 618.990835,29.0405643 618.250271,29.7811279 C617.509708,30.5216915 616.614697,30.8919678 615.565213,30.8919678 L597.15701,30.8919678 C596.107525,30.8919678 595.212515,30.5216915 594.471951,29.7811279 C593.731387,29.0405643 593.361111,28.1455538 593.361111,27.0960693 L593.361111,8.68786621 C593.361111,7.6383818 593.731387,6.74337122 594.471951,6.00280762 C595.212515,5.26224402 596.107525,4.89196777 597.15701,4.89196777 L615.565213,4.89196777 Z M606.361111,13.0169678 C605.015401,13.0169678 603.866487,13.4930372 602.914334,14.4451904 C601.962181,15.3973436 601.486111,16.5462579 601.486111,17.8919678 C601.486111,19.2376776 601.962181,20.3865919 602.914334,21.3387451 C603.866487,22.2908983 605.015401,22.7669678 606.361111,22.7669678 C607.706821,22.7669678 608.855735,22.2908983 609.807888,21.3387451 C610.760042,20.3865919 611.236111,19.2376776 611.236111,17.8919678 C611.236111,16.5462579 610.760042,15.3973436 609.807888,14.4451904 C608.855735,13.4930372 607.706821,13.0169678 606.361111,13.0169678 L606.361111,13.0169678 Z M616.65701,27.6419678 L616.65701,16.2669678 L613.775174,16.2669678 C613.8852,16.7663192 613.940213,17.3079805 613.940213,17.8919678 C613.940213,19.2630684 613.601674,20.5304711 612.924588,21.6942139 C612.247501,22.8579567 611.3271,23.7783576 610.163357,24.4554443 C608.999614,25.1325311 607.732212,25.4710693 606.361111,25.4710693 C604.99001,25.4710693 603.722608,25.1325311 602.558865,24.4554443 C601.395122,23.7783576 600.474721,22.8579567 599.797635,21.6942139 C599.120548,20.5304711 598.78201,19.2630684 598.78201,17.8919678 C598.78201,17.3079805 598.837022,16.7663192 598.947049,16.2669678 L596.065213,16.2669678 L596.065213,27.6419678 C596.065213,27.7943123 596.118109,27.92338 596.223904,28.0291748 C596.329699,28.1349696 596.458767,28.1878662 596.611111,28.1878662 L616.111111,28.1878662 C616.263456,28.1878662 616.392523,28.1349696 616.498318,28.0291748 C616.604113,27.92338 616.65701,27.7943123 616.65701,27.6419678 L616.65701,27.6419678 Z M616.65701,11.3919678 L616.65701,8.14196777 C616.65701,7.98962326 616.604113,7.86055554 616.498318,7.75476074 C616.392523,7.64896594 616.263456,7.59606934 616.111111,7.59606934 L612.861111,7.59606934 C612.708767,7.59606934 612.579699,7.64896594 612.473904,7.75476074 C612.368109,7.86055554 612.315213,7.98962326 612.315213,8.14196777 L612.315213,11.3919678 C612.315213,11.5443123 612.368109,11.67338 612.473904,11.7791748 C612.579699,11.8849696 612.708767,11.9378662 612.861111,11.9378662 L616.111111,11.9378662 C616.263456,11.9378662 616.392523,11.8849696 616.498318,11.7791748 C616.604113,11.67338 616.65701,11.5443123 616.65701,11.3919678 L616.65701,11.3919678 Z" id="instagram" sketch:type="MSShapeGroup"></path>
            </g>
        </g>
    </g>
</svg>