<?xml version="1.0" encoding="UTF-8" standalone="no"?>
<svg width="27px" height="22px" viewBox="0 0 27 22" version="1.1" xmlns="http://www.w3.org/2000/svg" xmlns:xlink="http://www.w3.org/1999/xlink" xmlns:sketch="http://www.bohemiancoding.com/sketch/ns">
    <!-- Generator: Sketch 3.2.2 (9983) - http://www.bohemiancoding.com/sketch -->
    <title>twitter</title>
    <desc>Created with Sketch.</desc>
    <defs></defs>
    <g id="Welcome" stroke="none" stroke-width="1" fill-rule="evenodd" sketch:type="MSPage">
        <g id="try-it" sketch:type="MSArtboardGroup" transform="translate(-1003.000000, -2560.000000)">
            <g id="hello@officeofmesker-+-instagram----twitter-+-Line" sketch:type="MSLayerGroup" transform="translate(410.000000, 2513.000000)">
                <path d="M619.361111,50.0511475 C618.65017,51.1260226 617.765739,52.0485394 616.707791,52.8187256 L616.707791,53.5169678 C616.707791,54.7018695 616.557564,55.8931011 616.257107,57.0906982 C615.95665,58.2882954 615.525014,59.4520207 614.962185,60.5819092 C614.399357,61.7117976 613.677847,62.7676139 612.797635,63.7493896 C611.917422,64.7311654 610.931429,65.5880904 609.839627,66.3201904 C608.747824,67.0522904 607.488885,67.6299214 606.062771,68.0531006 C604.636657,68.4762798 603.132278,68.6878662 601.549588,68.6878662 C598.341889,68.6878662 595.612424,67.9642406 593.361111,66.5169678 C593.750436,66.5762129 594.173609,66.605835 594.630642,66.605835 C595.815544,66.605835 596.975038,66.3773216 598.109158,65.9202881 C599.243278,65.4632546 600.288515,64.8496539 601.2449,64.0794678 C600.102316,64.0710042 599.07189,63.7176549 598.153592,63.0194092 C597.235293,62.3211635 596.611113,61.4388481 596.281033,60.3724365 C596.636504,60.4401452 596.966578,60.473999 597.271267,60.473999 C597.762155,60.473999 598.236109,60.4105231 598.693142,60.2835693 C597.465923,60.0381254 596.446076,59.4266406 595.633572,58.4490967 C594.821068,57.4715527 594.414822,56.3395654 594.414822,55.0531006 L594.414822,54.989624 C595.176545,55.4043396 595.980573,55.6243895 596.826931,55.6497803 C596.0906,55.1588924 595.508737,54.5241331 595.081326,53.7454834 C594.653915,52.9668337 594.440213,52.1289514 594.440213,51.2318115 C594.440213,50.3600624 594.681421,49.4967898 595.163845,48.6419678 C596.501092,50.2669759 598.117612,51.5555372 600.013455,52.5076904 C601.909298,53.4598436 603.953223,53.9951573 606.145291,54.1136475 C606.069119,53.7835677 606.031033,53.37309 606.031033,52.8822021 C606.031033,51.4095385 606.54942,50.154831 607.586209,49.118042 C608.622998,48.081253 609.877705,47.5628662 611.350369,47.5628662 C612.86535,47.5628662 614.172955,48.1214544 615.27322,49.2386475 C616.483513,48.9932035 617.604921,48.5615672 618.637478,47.9437256 C618.231226,49.2301904 617.448356,50.2161831 616.288845,50.9017334 C617.346793,50.7832432 618.370872,50.4997174 619.361111,50.0511475 L619.361111,50.0511475 Z" id="twitter" sketch:type="MSShapeGroup"></path>
            </g>
        </g>
    </g>
</svg>