<?xml version="1.0" encoding="utf-8"?>
<!-- Generator: Adobe Illustrator 16.0.0, SVG Export Plug-In . SVG Version: 6.00 Build 0)  -->
<!DOCTYPE svg PUBLIC "-//W3C//DTD SVG 1.1//EN" "http://www.w3.org/Graphics/SVG/1.1/DTD/svg11.dtd">
<svg version="1.1" id="Layer_1" xmlns="http://www.w3.org/2000/svg" xmlns:xlink="http://www.w3.org/1999/xlink" x="0px" y="0px"
	 width="32px" height="32px" viewBox="2 2 32 32" enable-background="new 2 2 32 32" xml:space="preserve">
<g>
	<path d="M31.546,33.246l2.321,0.62l-0.62-2.327L31.546,33.246z M30.837,29.869l1.457-1.462l-6.095-6.1L34,14.506l-3.938-3.943
		l-9.282,6.319l-1.6-1.597l6.23-9.369l-3.915-3.914l-7.802,7.804L5.887,2.001L2,5.895l7.804,7.796L2,21.498l2.718,2.72l7.796-7.806
		l1.246,1.245l-6.091,9.508l1.284,1.288l16.289-10.667L11.76,31.256l2.747,2.746l7.802-7.804l6.097,6.097l1.464-1.455l-4.466-4.47
		l0.971-0.967L30.837,29.869z M17.89,18.852L7.911,8.873l0.967-0.966L19.041,18.07L17.89,18.852z"/>
</g>
</svg>
